<svg id="Layer_1" data-name="Layer 1" xmlns="http://www.w3.org/2000/svg" viewBox="0 0 469.12 90.22"><defs><style>.cls-1{fill:lime;stroke:#000;stroke-miterlimit:10;stroke-width:6px;}.cls-2{font-size:7px;font-family:HelveticaNeue-CondensedBlack, Helvetica Neue;font-weight:800;letter-spacing:0.03em;}</style></defs><path class="cls-1" d="M40.62,258.2v33.91H23.89V223.64a13.64,13.64,0,0,1,6.34-11.81A16.57,16.57,0,0,1,39.64,209H91.37L83.5,223.42H40.62v20.35H80.21V258.2Z" transform="translate(-20.89 -204.89)"/><path class="cls-1" d="M125.82,277.67h39.59l7.77,14.44H124.83A15.25,15.25,0,0,1,112,286a13.61,13.61,0,0,1-3-8.53V209h16.74Z" transform="translate(-20.89 -204.89)"/><path class="cls-1" d="M189.36,209h16.73v83.13H189.36Z" transform="translate(-20.89 -204.89)"/><path class="cls-1" d="M248,223.42v68.69H231.24V223.64a13.65,13.65,0,0,1,6.35-11.81A16.54,16.54,0,0,1,247,209h22.64q15.21,0,24.39,9.08a26,26,0,0,1,7.77,19.14v3.18q0,14.1-11.27,22.09-8.75,6.12-20.89,6.12H257.07l5-14.43h7.59q10.29,0,13.89-7.11a15.18,15.18,0,0,0,1.43-6.67V237.2q0-9.84-8.86-12.79a20.21,20.21,0,0,0-6.46-1Z" transform="translate(-20.89 -204.89)"/><path class="cls-1" d="M418.37,281.06H390l5-14.44h18.42l-14.22-40.79-23.19,66.28H358l24.39-69.56q5.36-14.55,16.73-14.66,11.37.11,16.63,14.66l24.5,69.56H422.31Z" transform="translate(-20.89 -204.89)"/><path class="cls-1" d="M459.38,209h16.73v83.13H459.38Z" transform="translate(-20.89 -204.89)"/><text class="cls-2" transform="translate(460.16 6.15)">TM</text></svg>